<svg xmlns="http://www.w3.org/2000/svg" viewBox="0 0 512 512" width="512" height="512">
  <rect width="512" height="512" rx="128" fill="#0A0A0A" />
  <!-- Cyber line decorations -->
  <path d="M 64 64 L 128 64 L 128 128" stroke="#C1FF00" stroke-width="8" stroke-linecap="round" stroke-linejoin="round" fill="none" opacity="0.3" />
  <path d="M 448 64 L 384 64 L 384 128" stroke="#C1FF00" stroke-width="8" stroke-linecap="round" stroke-linejoin="round" fill="none" opacity="0.3" />
  <path d="M 64 448 L 128 448 L 128 384" stroke="#C1FF00" stroke-width="8" stroke-linecap="round" stroke-linejoin="round" fill="none" opacity="0.3" />
  <path d="M 448 448 L 384 448 L 384 384" stroke="#C1FF00" stroke-width="8" stroke-linecap="round" stroke-linejoin="round" fill="none" opacity="0.3" />
  <!-- Bomb Core -->
  <circle cx="256" cy="256" r="120" fill="none" stroke="#C1FF00" stroke-width="16" />
  <circle cx="256" cy="256" r="40" fill="#C1FF00" />
  <!-- Cyber Spikes -->
  <line x1="256" y1="76" x2="256" y2="106" stroke="#C1FF00" stroke-width="16" stroke-linecap="round" />
  <line x1="256" y1="436" x2="256" y2="406" stroke="#C1FF00" stroke-width="16" stroke-linecap="round" />
  <line x1="76" y1="256" x2="106" y2="256" stroke="#C1FF00" stroke-width="16" stroke-linecap="round" />
  <line x1="436" y1="256" x2="406" y2="256" stroke="#C1FF00" stroke-width="16" stroke-linecap="round" />
  <!-- Diagonal spikes -->
  <line x1="128" y1="128" x2="150" y2="150" stroke="#C1FF00" stroke-width="16" stroke-linecap="round" />
  <line x1="384" y1="128" x2="362" y2="150" stroke="#C1FF00" stroke-width="16" stroke-linecap="round" />
  <line x1="128" y1="448" x2="150" y2="426" stroke="#C1FF00" stroke-width="16" stroke-linecap="round" />
  <line x1="384" y1="448" x2="362" y2="426" stroke="#C1FF00" stroke-width="16" stroke-linecap="round" />
  <!-- Glowing rings -->
  <circle cx="256" cy="256" r="180" fill="none" stroke="#C1FF00" stroke-width="2" stroke-dasharray="20,10" opacity="0.5" />
</svg>
